<svg width="30" height="31" viewBox="0 0 30 31" fill="none" xmlns="http://www.w3.org/2000/svg">
<g clip-path="url(#clip0_6247_2312)">
<path d="M15 0.502609C23.2839 0.502609 30 7.20996 30 15.4831C30 23.7562 23.2836 30.4635 15 30.4635C6.7164 30.4635 0 23.758 0 15.4831C0 7.20817 6.7152 0.502609 15 0.502609Z" fill="#53AE94"/>
<path d="M16.8513 13.4871V11.2586H21.954V7.86311H8.05918V11.2586H13.1625V13.4853C9.01498 13.6755 5.89648 14.4959 5.89648 15.4786C5.89648 16.4613 9.01648 17.2816 13.1625 17.4731V24.6113H16.8525V17.4725C20.9925 17.2816 24.1047 16.4619 24.1047 15.4801C24.1047 14.4983 20.9925 13.6785 16.8525 13.4877M16.8525 16.8679V16.8661C16.7484 16.8727 16.2135 16.9047 15.0225 16.9047C14.0703 16.9047 13.4004 16.8778 13.1643 16.8655V16.8685C9.50008 16.7064 6.76498 16.0691 6.76498 15.3066C6.76498 14.5441 9.50038 13.9077 13.1643 13.7453V16.2336C13.4043 16.2501 14.0907 16.2905 15.0381 16.2905C16.176 16.2905 16.7481 16.2432 16.8531 16.2336V13.7453C20.5101 13.908 23.2389 14.5459 23.2389 15.3057C23.2389 16.0655 20.5089 16.7037 16.8531 16.8664" fill="white"/>
</g>
<defs>
<clipPath id="clip0_6247_2312">
<rect width="30" height="29.9609" fill="white" transform="translate(0 0.502609)"/>
</clipPath>
</defs>
</svg>
