<svg width="18" height="18" viewBox="0 0 18 18" fill="none" xmlns="http://www.w3.org/2000/svg">
<path d="M8.99979 6.75346C10.6566 6.75346 11.9998 8.09662 11.9998 9.75345C11.9998 11.4103 10.6566 12.7535 8.99979 12.7535C7.34293 12.7535 5.99979 11.4103 5.99979 9.75345C5.99979 8.09662 7.34293 6.75346 8.99979 6.75346ZM8.99979 7.87845C7.96426 7.87845 7.12479 8.71792 7.12479 9.75345C7.12479 10.789 7.96426 11.6284 8.99979 11.6284C10.0353 11.6284 10.8748 10.789 10.8748 9.75345C10.8748 8.71792 10.0353 7.87845 8.99979 7.87845ZM8.99979 4.125C12.4599 4.125 15.4469 6.48751 16.2756 9.7983C16.3511 10.0996 16.1679 10.4051 15.8666 10.4806C15.5652 10.556 15.2597 10.3729 15.1843 10.0715C14.4801 7.25847 11.9408 5.25 8.99979 5.25C6.05748 5.25 3.51735 7.26019 2.81442 10.0749C2.73915 10.3762 2.4338 10.5596 2.1324 10.4843C1.83099 10.409 1.64768 10.1037 1.72295 9.80228C2.55027 6.48954 5.53815 4.125 8.99979 4.125Z" fill="#9CA3AF"/>
</svg>
