<svg width="18" height="18" viewBox="0 0 18 18" fill="none" xmlns="http://www.w3.org/2000/svg">
<path d="M1.66475 1.66475C1.46505 1.86445 1.4469 2.17695 1.61029 2.39716L1.66475 2.46025L4.69068 5.48617C3.24919 6.49828 2.17183 8.00992 1.72416 9.7983C1.64873 10.0996 1.83188 10.4051 2.13323 10.4806C2.4346 10.5559 2.74005 10.3729 2.81549 10.0714C3.2126 8.48512 4.19334 7.1546 5.50062 6.29589L6.85784 7.65322C6.32721 8.19435 6 8.93572 6 9.75345C6 11.4103 7.34314 12.7534 9 12.7534C9.8178 12.7534 10.5591 12.4262 11.1003 11.8956L15.5398 16.3352C15.7594 16.5549 16.1156 16.5549 16.3352 16.3352C16.535 16.1356 16.5531 15.823 16.3897 15.6028L16.3352 15.5398L11.7501 10.9541L11.751 10.953L10.8509 10.0546L8.6985 7.9026L8.7 7.902L6.53908 5.74336L6.54 5.742L5.69004 4.89412L2.46025 1.66475C2.24058 1.44508 1.88442 1.44508 1.66475 1.66475ZM7.65307 8.44912L10.3044 11.1004C9.9669 11.4273 9.50692 11.6284 9 11.6284C7.96448 11.6284 7.125 10.789 7.125 9.75345C7.125 9.24652 7.32618 8.78655 7.65307 8.44912ZM9 4.125C8.24977 4.125 7.52183 4.23605 6.83332 4.44375L7.76107 5.37089C8.16292 5.29149 8.5773 5.25 9 5.25C11.9423 5.25 14.4824 7.26019 15.1853 10.0749C15.2606 10.3762 15.5659 10.5595 15.8674 10.4843C16.1688 10.409 16.3521 10.1037 16.2768 9.80227C15.4496 6.48954 12.4616 4.125 9 4.125ZM9.14603 6.75696L11.997 9.6075C11.9207 8.06482 10.6854 6.83073 9.14603 6.75696Z" fill="#9CA3AF"/>
</svg>
