<svg width="24" height="24" viewBox="0 0 24 24" fill="none" xmlns="http://www.w3.org/2000/svg">
<path d="M0.590095 0.589881C0.441907 0.738034 0.351808 0.934447 0.336179 1.14341C0.32055 1.35237 0.380429 1.56 0.504928 1.72855L0.590095 1.82655L5.29643 6.53405C3.00163 8.14245 1.36346 10.5241 0.682261 13.2424C0.629737 13.4662 0.667373 13.7016 0.787034 13.8979C0.906696 14.0941 1.09877 14.2354 1.32175 14.2912C1.54474 14.347 1.78071 14.3128 1.97869 14.196C2.17666 14.0792 2.32073 13.8892 2.37976 13.667C2.98515 11.2544 4.47615 9.15782 6.55643 7.79405L8.6681 9.90571C7.82459 10.7871 7.35978 11.9638 7.37324 13.1837C7.38669 14.4036 7.87734 15.5698 8.74008 16.4324C9.60283 17.295 10.7691 17.7854 11.989 17.7986C13.2089 17.8119 14.3855 17.3469 15.2668 16.5032L22.1723 23.4099C22.3284 23.5664 22.538 23.6581 22.7589 23.6664C22.9799 23.6747 23.1958 23.5991 23.3632 23.4547C23.5307 23.3103 23.6373 23.1078 23.6615 22.8881C23.6858 22.6683 23.626 22.4475 23.4941 22.27L23.4089 22.172L16.2771 15.039L16.2783 15.0367L8.16993 6.93305L8.17226 6.93071L6.85043 5.61238L1.82676 0.589881C1.6627 0.426022 1.4403 0.333984 1.20843 0.333984C0.976552 0.333984 0.754158 0.426022 0.590095 0.589881ZM12.0001 4.41655C10.8334 4.41655 9.70176 4.58921 8.6296 4.91238L10.0728 6.35438C12.5689 5.86013 15.1595 6.34398 17.309 7.70588C19.4585 9.06778 21.0024 11.2036 21.6216 13.6717C21.682 13.8921 21.8263 14.0802 22.0236 14.1956C22.2209 14.311 22.4555 14.3446 22.6772 14.2893C22.899 14.234 23.0903 14.0941 23.2103 13.8995C23.3302 13.705 23.3693 13.4712 23.3191 13.2482C22.6864 10.7252 21.2291 8.48595 19.1784 6.88588C17.1276 5.28582 14.6012 4.4167 12.0001 4.41655ZM12.2276 8.51155L16.6621 12.9449C16.6047 11.7874 16.1191 10.6926 15.2995 9.87331C14.48 9.05397 13.3851 8.56861 12.2276 8.51155Z" fill="white"/>
</svg>
