<svg width="279" height="279" viewBox="0 0 279 279" fill="none" xmlns="http://www.w3.org/2000/svg">
<path d="M279 139.5C279 216.543 216.543 279 139.5 279C62.4566 279 0 216.543 0 139.5C0 62.4566 62.4566 0 139.5 0C216.543 0 279 62.4566 279 139.5Z" fill="#F53C3C"/>
<path fill-rule="evenodd" clip-rule="evenodd" d="M94.3399 93.4677C95.8387 91.9524 97.8711 91.1011 99.9903 91.1011C102.109 91.1011 104.142 91.9524 105.641 93.4677L139.95 128.169L174.26 93.4677C174.997 92.6957 175.879 92.0799 176.854 91.6563C177.829 91.2326 178.877 91.0096 179.939 91.0003C181 90.991 182.052 91.1955 183.034 91.6019C184.016 92.0084 184.909 92.6086 185.659 93.3676C186.41 94.1265 187.003 95.029 187.405 96.0225C187.807 97.0159 188.009 98.0803 188 99.1536C187.99 100.227 187.77 101.288 187.351 102.274C186.932 103.26 186.323 104.152 185.56 104.898L151.251 139.599L185.56 174.301C187.016 175.826 187.821 177.867 187.803 179.987C187.785 182.106 186.945 184.134 185.463 185.632C183.981 187.131 181.977 187.981 179.881 188C177.786 188.018 175.767 187.203 174.26 185.731L139.95 151.029L105.641 185.731C104.133 187.203 102.114 188.018 100.019 188C97.9235 187.981 95.9191 187.131 94.4373 185.632C92.9555 184.134 92.115 182.106 92.0968 179.987C92.0786 177.867 92.8841 175.826 94.3399 174.301L128.649 139.599L94.3399 104.898C92.8417 103.382 92 101.326 92 99.1827C92 97.0393 92.8417 94.9836 94.3399 93.4677Z" fill="white"/>
</svg>
