<svg width="24" height="24" viewBox="0 0 24 24" fill="none" xmlns="http://www.w3.org/2000/svg">
<path d="M7.02393 3.75C7.02393 2.784 7.80793 2 8.77393 2H20.2499C21.2159 2 21.9999 2.784 21.9999 3.75V15.248C21.9999 15.7121 21.8156 16.1572 21.4874 16.4854C21.1592 16.8136 20.7141 16.998 20.2499 16.998H8.77393C8.3098 16.998 7.86468 16.8136 7.53649 16.4854C7.2083 16.1572 7.02393 15.7121 7.02393 15.248V3.75ZM8.77393 3.5C8.70762 3.5 8.64403 3.52634 8.59715 3.57322C8.55026 3.62011 8.52393 3.6837 8.52393 3.75V15.248C8.52393 15.387 8.63593 15.498 8.77393 15.498H20.2499C20.3162 15.498 20.3798 15.4717 20.4267 15.4248C20.4736 15.3779 20.4999 15.3143 20.4999 15.248V3.75C20.4999 3.6837 20.4736 3.62011 20.4267 3.57322C20.3798 3.52634 20.3162 3.5 20.2499 3.5H8.77393Z" fill="white"/>
<path d="M1.99512 10.749C1.99499 10.5191 2.04015 10.2915 2.12804 10.079C2.21593 9.86661 2.34481 9.67357 2.50733 9.51096C2.66984 9.34835 2.86281 9.21936 3.07519 9.13135C3.28758 9.04335 3.51522 8.99805 3.74512 8.99805H5.25012C5.44903 8.99805 5.6398 9.07706 5.78045 9.21772C5.9211 9.35837 6.00012 9.54913 6.00012 9.74805C6.00012 9.94696 5.9211 10.1377 5.78045 10.2784C5.6398 10.419 5.44903 10.498 5.25012 10.498H3.74512C3.67881 10.498 3.61522 10.5244 3.56834 10.5713C3.52146 10.6182 3.49512 10.6817 3.49512 10.748L3.50012 20.25C3.50012 20.388 3.61112 20.5 3.75012 20.5H13.2501C13.3164 20.5 13.38 20.4737 13.4269 20.4268C13.4738 20.3799 13.5001 20.3164 13.5001 20.25V18.74C13.5001 18.5411 13.5791 18.3504 13.7198 18.2097C13.8604 18.0691 14.0512 17.99 14.2501 17.99C14.449 17.99 14.6398 18.0691 14.7804 18.2097C14.9211 18.3504 15.0001 18.5411 15.0001 18.74V20.25C15.0001 20.7142 14.8157 21.1593 14.4876 21.4875C14.1594 21.8157 13.7142 22 13.2501 22H3.75012C3.28599 22 2.84087 21.8157 2.51268 21.4875C2.18449 21.1593 2.00012 20.7142 2.00012 20.25L1.99512 10.749Z" fill="white"/>
</svg>
