<svg width="563" height="563" viewBox="0 0 563 563" fill="none" xmlns="http://www.w3.org/2000/svg">
<path d="M231.232 120.643H331.768C331.768 107.311 326.472 94.5252 317.045 85.0982C307.618 75.6711 294.832 70.3751 281.5 70.3751C268.168 70.3751 255.382 75.6711 245.955 85.0982C236.528 94.5252 231.232 107.311 231.232 120.643ZM201.071 120.643C201.071 99.3119 209.545 78.8546 224.628 63.7713C239.712 48.6881 260.169 40.2144 281.5 40.2144C302.831 40.2144 323.288 48.6881 338.371 63.7713C353.455 78.8546 361.928 99.3119 361.928 120.643H487.598C491.598 120.643 495.433 122.232 498.262 125.06C501.09 127.888 502.678 131.724 502.678 135.723C502.678 139.723 501.09 143.559 498.262 146.387C495.433 149.215 491.598 150.804 487.598 150.804H461.258L436.787 444.428C435.007 465.789 425.265 485.7 409.492 500.214C393.719 514.728 373.068 522.784 351.634 522.786H211.366C189.932 522.784 169.281 514.728 153.508 500.214C137.735 485.7 127.993 465.789 126.212 444.428L101.742 150.804H75.4016C71.4021 150.804 67.5663 149.215 64.7382 146.387C61.9101 143.559 60.3213 139.723 60.3213 135.723C60.3213 131.724 61.9101 127.888 64.7382 125.06C67.5663 122.232 71.4021 120.643 75.4016 120.643H201.071ZM156.273 441.915C157.422 455.737 163.725 468.622 173.93 478.015C184.134 487.407 197.497 492.622 211.366 492.625H351.634C365.503 492.622 378.865 487.407 389.07 478.015C399.275 468.622 405.577 455.737 406.727 441.915L431.017 150.804H132.003L156.273 441.915ZM236.259 221.179C240.258 221.179 244.094 222.767 246.922 225.596C249.75 228.424 251.339 232.259 251.339 236.259V407.17C251.339 411.169 249.75 415.005 246.922 417.833C244.094 420.661 240.258 422.25 236.259 422.25C232.259 422.25 228.423 420.661 225.595 417.833C222.767 415.005 221.178 411.169 221.178 407.17V236.259C221.178 232.259 222.767 228.424 225.595 225.596C228.423 222.767 232.259 221.179 236.259 221.179ZM341.821 236.259C341.821 232.259 340.232 228.424 337.404 225.596C334.576 222.767 330.74 221.179 326.741 221.179C322.741 221.179 318.906 222.767 316.078 225.596C313.249 228.424 311.661 232.259 311.661 236.259V407.17C311.661 411.169 313.249 415.005 316.078 417.833C318.906 420.661 322.741 422.25 326.741 422.25C330.74 422.25 334.576 420.661 337.404 417.833C340.232 415.005 341.821 411.169 341.821 407.17V236.259Z" fill="#FF2A2A"/>
</svg>
