<svg width="504" height="504" viewBox="0 0 504 504" fill="none" xmlns="http://www.w3.org/2000/svg">
<g clip-path="url(#clip0_102_332)">
<path d="M273 63C278.352 63.0059 283.501 65.0555 287.393 68.7298C291.285 72.4042 293.627 77.426 293.941 82.7693C294.254 88.1126 292.516 93.374 289.08 97.4785C285.645 101.583 280.772 104.221 275.457 104.853L273 105H105V399H399V231C399.006 225.648 401.055 220.499 404.73 216.607C408.404 212.715 413.426 210.373 418.769 210.059C424.113 209.746 429.374 211.484 433.478 214.92C437.583 218.355 440.221 223.228 440.853 228.543L441 231V399C441.003 409.596 437.001 419.802 429.797 427.572C422.592 435.341 412.716 440.1 402.15 440.895L399 441H105C94.4039 441.003 84.1981 437.001 76.4285 429.797C68.6589 422.592 63.8997 412.716 63.105 402.15L63 399V105C62.9966 94.4039 66.9985 84.1981 74.2034 76.4285C81.4083 68.6589 91.2837 63.8997 101.85 63.105L105 63H273ZM404.103 70.203C407.882 66.4367 412.953 64.2501 418.286 64.0872C423.619 63.9244 428.814 65.7975 432.816 69.3262C436.818 72.8549 439.326 77.7746 439.832 83.086C440.338 88.3973 438.804 93.7022 435.54 97.923L433.797 99.918L225.897 307.797C222.118 311.563 217.047 313.75 211.714 313.913C206.381 314.076 201.186 312.202 197.184 308.674C193.182 305.145 190.674 300.225 190.168 294.914C189.662 289.603 191.196 284.298 194.46 280.077L196.203 278.103L404.103 70.203Z" fill="#d1d5db"/>
</g>
<defs>
<clipPath id="clip0_102_332">
<rect width="504" height="504" fill="#d1d5db"/>
</clipPath>
</defs>
</svg>
