<svg width="18" height="18" viewBox="0 0 18 18" fill="none" xmlns="http://www.w3.org/2000/svg">
<path d="M8.99999 12H9.00674M6.79649 3.6195L2.42924 7.44075C2.05424 7.7685 2.30624 8.3505 2.82149 8.3505C3.13649 8.3505 3.39224 8.58675 3.39224 8.87775V11.3108C3.39224 13.4033 3.39224 14.4495 4.09649 15.0997C4.79999 15.75 5.93249 15.75 8.19899 15.75H9.80099C12.0667 15.75 13.2 15.75 13.9035 15.0997C14.6077 14.4495 14.6077 13.4033 14.6077 11.3108V8.87775C14.6077 8.58675 14.8627 8.3505 15.1777 8.3505C15.6937 8.3505 15.945 7.7685 15.5707 7.44075L11.2035 3.6195C10.1602 2.7075 9.63824 2.25 8.99999 2.25C8.36174 2.25 7.83974 2.70675 6.79649 3.6195Z" stroke="#9CA3AF" stroke-width="1.125" stroke-linecap="round" stroke-linejoin="round"/>
</svg>
