<svg width="800" height="800" viewBox="0 0 800 800" fill="none" xmlns="http://www.w3.org/2000/svg">
<g clip-path="url(#clip0_102_302)">
<path fill-rule="evenodd" clip-rule="evenodd" d="M800 800H640V520.039C640 443.239 606.12 400.391 545.36 400.391C479.24 400.391 440 445.039 440 520.039V800H280V280H440V338.477C440 338.477 490.2 250.391 603.32 250.391C716.48 250.391 800 319.444 800 462.324V800ZM97.6801 196.836C43.7201 196.836 0 152.758 0 98.3984C0 44.0784 43.7201 0 97.6801 0C151.6 0 195.32 44.0784 195.32 98.3984C195.36 152.758 151.6 196.836 97.6801 196.836ZM0 800H200V280H0V800Z" fill="white"/>
</g>
<defs>
<clipPath id="clip0_102_302">
<rect width="800" height="800" fill="white"/>
</clipPath>
</defs>
</svg>
