<svg width="12" height="12" viewBox="0 0 12 12" fill="none" xmlns="http://www.w3.org/2000/svg">
<path d="M4.16005 8.55874C4.10784 8.61221 4.0668 8.67555 4.03934 8.74505C4.01189 8.81456 3.99855 8.88884 4.00012 8.96356C4.0017 9.03828 4.01814 9.11193 4.0485 9.18022C4.07886 9.24851 4.12252 9.31007 4.17694 9.36129C4.23135 9.41252 4.29543 9.45239 4.36543 9.47857C4.43542 9.50476 4.50994 9.51673 4.58461 9.51379C4.65929 9.51085 4.73263 9.49306 4.80035 9.46146C4.86808 9.42986 4.92883 9.38508 4.97905 9.32974L7.97905 6.14224C8.07703 6.03794 8.13157 5.90021 8.13157 5.75711C8.13157 5.61401 8.07703 5.47629 7.97905 5.37199L4.97905 2.18449C4.92883 2.12914 4.86808 2.08436 4.80035 2.05276C4.73263 2.02116 4.65929 2.00337 4.58461 2.00043C4.50994 1.9975 4.43542 2.00947 4.36543 2.03565C4.29543 2.06184 4.23135 2.10171 4.17694 2.15293C4.12252 2.20416 4.07886 2.26571 4.0485 2.334C4.01814 2.40229 4.0017 2.47595 4.00012 2.55067C3.99855 2.62538 4.01189 2.69967 4.03934 2.76917C4.0668 2.83868 4.10784 2.90202 4.16005 2.95549L6.79705 5.75674L4.16005 8.55874Z" fill="#9CA3AF"/>
</svg>
