<svg width="18" height="18" viewBox="0 0 18 18" fill="none" xmlns="http://www.w3.org/2000/svg">
<path d="M9 13.4712L4.5775 9.04744L5.46125 8.14869L8.375 11.0624V0.249939H9.625V11.0624L12.5375 8.14994L13.4225 9.04744L9 13.4712ZM2.26875 17.7499C1.69375 17.7499 1.21375 17.5574 0.82875 17.1724C0.442916 16.7866 0.25 16.3062 0.25 15.7312V12.7024H1.5V15.7312C1.5 15.9229 1.58 16.0991 1.74 16.2599C1.90083 16.4199 2.07708 16.4999 2.26875 16.4999H15.7313C15.9229 16.4999 16.0992 16.4199 16.26 16.2599C16.42 16.0991 16.5 15.9229 16.5 15.7312V12.7024H17.75V15.7312C17.75 16.3062 17.5575 16.7862 17.1725 17.1712C16.7867 17.557 16.3062 17.7499 15.7313 17.7499H2.26875Z" fill="#F2F2F2"/>
</svg>
