<svg width="18" height="18" viewBox="0 0 18 18" fill="none" xmlns="http://www.w3.org/2000/svg">
<path d="M1.84062 12.0449C2.05158 12.2558 2.33768 12.3743 2.63599 12.3743C2.9343 12.3743 3.2204 12.2558 3.43137 12.0449L9.00012 6.47614L14.5689 12.0449C14.781 12.2498 15.0652 12.3632 15.3602 12.3606C15.6552 12.3581 15.9373 12.2398 16.1459 12.0312C16.3545 11.8226 16.4728 11.5404 16.4754 11.2455C16.4779 10.9505 16.3645 10.6663 16.1596 10.4541L9.79549 4.09001C9.58452 3.87911 9.29842 3.76063 9.00012 3.76063C8.70181 3.76063 8.41571 3.87911 8.20474 4.09001L1.84062 10.4541C1.62971 10.6651 1.51123 10.9512 1.51123 11.2495C1.51123 11.5478 1.62971 11.8339 1.84062 12.0449Z" fill="#F2F2F2"/>
</svg>
