<svg width="18" height="18" viewBox="0 0 18 18" fill="none" xmlns="http://www.w3.org/2000/svg">
<path d="M16.1595 5.95462C15.9485 5.74372 15.6624 5.62524 15.3641 5.62524C15.0658 5.62524 14.7797 5.74372 14.5688 5.95462L9.00001 11.5234L3.43126 5.95462C3.21908 5.7497 2.9349 5.6363 2.63993 5.63887C2.34496 5.64143 2.06279 5.75974 1.85421 5.96833C1.64563 6.17691 1.52731 6.45908 1.52475 6.75405C1.52219 7.04902 1.63558 7.3332 1.84051 7.54537L8.20463 13.9095C8.4156 14.1204 8.7017 14.2389 9.00001 14.2389C9.29832 14.2389 9.58441 14.1204 9.79538 13.9095L16.1595 7.54537C16.3704 7.33441 16.4889 7.04831 16.4889 6.75C16.4889 6.45169 16.3704 6.16559 16.1595 5.95462Z" fill="#F2F2F2"/>
</svg>
