<svg width="60" height="60" viewBox="0 0 60 60" fill="none" xmlns="http://www.w3.org/2000/svg">
<path d="M30.0062 60C13.4392 60.0056 -0.0249658 46.5316 3.47599e-05 29.9715C0.0250353 13.417 13.4448 0.0055574 29.9937 1.71746e-06C46.5608 -0.00555397 60.025 13.4684 60 30.0285C59.975 46.583 46.5552 59.9944 30.0062 60ZM25.2659 35.5036C24.8992 35.1536 24.7145 34.9855 24.5381 34.8091C22.4769 32.748 20.4296 30.6729 18.3504 28.6284C16.8671 27.1687 14.6865 27.4506 13.7837 29.1785C13.192 30.3118 13.4253 31.5438 14.4629 32.5855C17.2393 35.3717 20.0227 38.1509 22.8061 40.9315C24.37 42.494 25.8687 42.4954 27.4354 40.9315C33.4077 34.9619 39.3787 28.9896 45.3483 23.0158C45.576 22.788 45.808 22.5533 45.9927 22.2908C46.633 21.3783 46.7233 20.3991 46.2038 19.413C45.6872 18.431 44.8427 17.9268 43.726 17.9171C42.8024 17.9087 42.1148 18.3851 41.4898 19.0116C36.2425 24.2672 30.9882 29.516 25.7423 34.7744C25.5506 34.9675 25.4367 35.2397 25.2673 35.5064L25.2659 35.5036Z" fill="#22C55E"/>
</svg>
