<svg width="18" height="18" viewBox="0 0 18 18" fill="none" xmlns="http://www.w3.org/2000/svg">
<path d="M8.75 4.52875L13.1725 8.9525L12.2888 9.85125L9.375 6.9375L9.375 17.75H8.125L8.125 6.9375L5.2125 9.85L4.3275 8.9525L8.75 4.52875ZM15.4813 0.25C16.0563 0.25 16.5363 0.442499 16.9213 0.827499C17.3071 1.21333 17.5 1.69375 17.5 2.26875V5.2975H16.25V2.26875C16.25 2.07708 16.17 1.90083 16.01 1.74C15.8492 1.58 15.6729 1.5 15.4813 1.5L2.01875 1.5C1.82708 1.5 1.65083 1.58 1.49 1.74C1.33 1.90083 1.25 2.07708 1.25 2.26875V5.2975H0V2.26875C0 1.69375 0.192499 1.21375 0.577499 0.828749C0.963333 0.442915 1.44375 0.25 2.01875 0.25L15.4813 0.25Z" fill="#F2F2F2"/>
</svg>