<?xml version="1.0" encoding="UTF-8"?>
<svg id="Layer_1" data-name="Layer 1" xmlns="http://www.w3.org/2000/svg" viewBox="0 0 16 16">
  <defs>
    <style>
      .cls-1 {
        fill: #131313;
      }

      .cls-1, .cls-2 {
        stroke-width: 0px;
      }

      .cls-2 {
        fill: #7fc047;
      }
    </style>
  </defs>
  <rect class="cls-1" x=".14" y=".14" width="15.73" height="15.73" rx="1.24" ry="1.24"/>
  <g>
    <path class="cls-2" d="M5.97,12.45h0c-.12,0-.23-.04-.32-.13l-3.98-3.97c-.08-.08-.13-.2-.13-.32s.04-.23.13-.32L5.69,3.68c.08-.08.2-.13.32-.13h0c.12,0,.23.04.32.13l3.98,3.98c.08.08.13.2.13.32s-.04.23-.13.32l-4.02,4.02c-.08.08-.2.13-.32.13h0ZM6.25,11.71h0ZM2.56,8.03l3.41,3.41,3.45-3.45-3.41-3.41s-3.45,3.45-3.45,3.45ZM2.28,8.31h0ZM5.73,4.29h0Z"/>
    <path class="cls-2" d="M9.99,12.45c-.12,0-.23-.04-.32-.13l-3.98-3.98c-.08-.08-.13-.2-.13-.32s.04-.23.13-.32l4.02-4.02c.08-.08.2-.12.32-.13h0c.12,0,.23.04.32.13l3.98,3.98c.08.08.13.2.13.32s-.04.23-.13.32l-4.02,4.02c-.08.08-.2.13-.32.13ZM6.58,8.03l3.41,3.41,3.45-3.45-3.41-3.41s-3.45,3.45-3.45,3.45ZM6.29,8.31h0ZM10.31,4.29h0Z"/>
  </g>
</svg>