<svg width="13" height="12" viewBox="0 0 13 12" fill="none" xmlns="http://www.w3.org/2000/svg">
<g clip-path="url(#clip0_7569_2335)">
<path d="M11.5767 12H1.60516C0.96851 12 0.45459 11.4975 0.45459 10.875V1.875C0.45459 1.2525 0.96851 0.75 1.60516 0.75H11.5767C12.2134 0.75 12.7273 1.2525 12.7273 1.875V10.875C12.7273 11.4975 12.2134 12 11.5767 12ZM1.60516 1.5C1.39039 1.5 1.22164 1.665 1.22164 1.875V10.875C1.22164 11.085 1.39039 11.25 1.60516 11.25H11.5767C11.7915 11.25 11.9603 11.085 11.9603 10.875V1.875C11.9603 1.665 11.7915 1.5 11.5767 1.5H1.60516Z" fill="#D1D5DB"/>
<path d="M3.90629 3C3.69152 3 3.52277 2.835 3.52277 2.625V0.375C3.52277 0.165 3.69152 0 3.90629 0C4.12107 0 4.28982 0.165 4.28982 0.375V2.625C4.28982 2.835 4.12107 3 3.90629 3ZM9.27561 3C9.06084 3 8.89209 2.835 8.89209 2.625V0.375C8.89209 0.165 9.06084 0 9.27561 0C9.49039 0 9.65913 0.165 9.65913 0.375V2.625C9.65913 2.835 9.49039 3 9.27561 3ZM12.3438 4.5H0.838113C0.62334 4.5 0.45459 4.335 0.45459 4.125C0.45459 3.915 0.62334 3.75 0.838113 3.75H12.3438C12.5586 3.75 12.7273 3.915 12.7273 4.125C12.7273 4.335 12.5586 4.5 12.3438 4.5Z" fill="#D1D5DB"/>
</g>
<defs>
<clipPath id="clip0_7569_2335">
<rect width="12.2727" height="12" fill="#D1D5DB" transform="translate(0.45459)"/>
</clipPath>
</defs>
</svg>
