<svg width="17" height="9" viewBox="0 0 17 9" fill="none" xmlns="http://www.w3.org/2000/svg">
<path d="M15.2228 1.58824H0.83173C0.619689 1.58824 0.416332 1.50457 0.266396 1.35564C0.11646 1.20672 0.0322266 1.00473 0.0322266 0.794118C0.0322266 0.583505 0.11646 0.381518 0.266396 0.232592C0.416332 0.0836656 0.619689 0 0.83173 0H15.2228C15.4348 0 15.6382 0.0836656 15.7881 0.232592C15.9381 0.381518 16.0223 0.583505 16.0223 0.794118C16.0223 1.00473 15.9381 1.20672 15.7881 1.35564C15.6382 1.50457 15.4348 1.58824 15.2228 1.58824ZM12.5578 5.29412H3.49674C3.2847 5.29412 3.08134 5.21045 2.93141 5.06153C2.78147 4.9126 2.69724 4.71061 2.69724 4.5C2.69724 4.28939 2.78147 4.0874 2.93141 3.93847C3.08134 3.78955 3.2847 3.70588 3.49674 3.70588H12.5578C12.7698 3.70588 12.9732 3.78955 13.1231 3.93847C13.2731 4.0874 13.3573 4.28939 13.3573 4.5C13.3573 4.71061 13.2731 4.9126 13.1231 5.06153C12.9732 5.21045 12.7698 5.29412 12.5578 5.29412ZM9.35977 9H6.69476C6.48272 9 6.27936 8.91633 6.12942 8.76741C5.97949 8.61848 5.89525 8.4165 5.89525 8.20588C5.89525 7.99527 5.97949 7.79328 6.12942 7.64436C6.27936 7.49543 6.48272 7.41177 6.69476 7.41177H9.35977C9.57181 7.41177 9.77517 7.49543 9.92511 7.64436C10.075 7.79328 10.1593 7.99527 10.1593 8.20588C10.1593 8.4165 10.075 8.61848 9.92511 8.76741C9.77517 8.91633 9.57181 9 9.35977 9Z" fill="#D1D5DB"/>
</svg>