<svg width="38" height="26" viewBox="0 0 38 26" fill="none" xmlns="http://www.w3.org/2000/svg">
<path fill-rule="evenodd" clip-rule="evenodd" d="M3.33617 13.0667L12.5509 22.5623L21.8939 12.9346L12.6791 3.43889L3.33617 13.0667ZM0.881584 13.9751C0.394699 13.4734 0.394699 12.6599 0.881584 12.1582L11.7975 0.909476C12.2844 0.407728 13.0738 0.407767 13.5607 0.909477L24.3485 12.0261C24.8354 12.5279 24.8354 13.3413 24.3485 13.843L13.4325 25.0918C12.9457 25.5935 12.1563 25.5935 11.6694 25.0918L0.881584 13.9751Z" fill="#7FC047"/>
<path fill-rule="evenodd" clip-rule="evenodd" d="M16.1057 13.0658L25.3205 22.5615L34.6634 12.9337L25.4486 3.43804L16.1057 13.0658ZM13.6511 13.9743C13.1642 13.4725 13.1642 12.6591 13.6511 12.1573L24.5671 0.908621C25.054 0.406873 25.8434 0.406912 26.3302 0.908622L37.118 12.0253C37.6049 12.527 37.6049 13.3405 37.118 13.8422L26.2021 25.0909C25.7152 25.5926 24.9258 25.5927 24.4389 25.0909L13.6511 13.9743Z" fill="#7FC047"/>
</svg>
