<svg width="25" height="22" viewBox="0 0 25 22" fill="none" xmlns="http://www.w3.org/2000/svg">
<path d="M22.6444 4.02703H3.11985C2.86094 4.02703 2.61263 3.92574 2.42955 3.74543C2.24647 3.56513 2.14362 3.32058 2.14362 3.06559C2.14362 2.8106 2.24647 2.56606 2.42955 2.38575C2.61263 2.20545 2.86094 2.10416 3.11985 2.10416H19.7157C19.9746 2.10416 20.2229 2.00286 20.406 1.82256C20.5891 1.64225 20.692 1.39771 20.692 1.14272C20.692 0.88773 20.5891 0.643185 20.406 0.462881C20.2229 0.282576 19.9746 0.181282 19.7157 0.181282H3.11985C2.34311 0.181282 1.59819 0.485164 1.04895 1.02608C0.499719 1.56699 0.191162 2.30063 0.191162 3.06559V18.4486C0.191162 19.2136 0.499719 19.9472 1.04895 20.4881C1.59819 21.029 2.34311 21.3329 3.11985 21.3329H22.6444C23.1622 21.3329 23.6589 21.1303 24.025 20.7697C24.3912 20.4091 24.5969 19.92 24.5969 19.41V5.9499C24.5969 5.43993 24.3912 4.95084 24.025 4.59023C23.6589 4.22962 23.1622 4.02703 22.6444 4.02703ZM22.6444 19.41H3.11985C2.86094 19.41 2.61263 19.3087 2.42955 19.1284C2.24647 18.9481 2.14362 18.7036 2.14362 18.4486V5.78526C2.45708 5.89469 2.78727 5.95038 3.11985 5.9499H22.6444V19.41ZM16.787 12.1992C16.787 11.914 16.8729 11.6352 17.0338 11.398C17.1947 11.1609 17.4234 10.976 17.691 10.8669C17.9586 10.7577 18.253 10.7292 18.5371 10.7848C18.8211 10.8404 19.082 10.9778 19.2868 11.1795C19.4916 11.3812 19.6311 11.6381 19.6876 11.9179C19.7441 12.1976 19.7151 12.4876 19.6043 12.7511C19.4934 13.0147 19.3057 13.2399 19.0649 13.3984C18.8241 13.5568 18.541 13.6414 18.2514 13.6414C17.863 13.6414 17.4906 13.4895 17.2159 13.219C16.9413 12.9485 16.787 12.5817 16.787 12.1992Z" fill="#7FC047"/>
</svg>
