<svg width="100" height="100"  viewBox="0 0 42 42" fill="none" xmlns="http://www.w3.org/2000/svg">
<path fill-rule="evenodd" clip-rule="evenodd" d="M6.10373 20.7964L14.6765 29.3691L23.3684 20.6772L14.7957 12.1044L6.10373 20.7964ZM3.82016 21.6165C3.3672 21.1636 3.3672 20.4292 3.82016 19.9762L13.9755 9.82085C14.4285 9.36787 15.1629 9.3679 15.6159 9.82085L25.652 19.857C26.105 20.31 26.105 21.0444 25.652 21.4973L15.4966 31.6527C15.0437 32.1056 14.3093 32.1057 13.8563 31.6527L3.82016 21.6165Z" fill="#7FC047"/>
<path fill-rule="evenodd" clip-rule="evenodd" d="M17.9843 20.7958L26.5571 29.3685L35.2491 20.6766L26.6763 12.1038L17.9843 20.7958ZM15.7008 21.6159C15.2478 21.163 15.2478 20.4286 15.7008 19.9756L25.8562 9.82024C26.3091 9.36726 27.0435 9.36729 27.4965 9.82024L37.5326 19.8564C37.9856 20.3094 37.9856 21.0437 37.5326 21.4967L27.3772 31.6521C26.9243 32.105 26.1899 32.1051 25.7369 31.6521L15.7008 21.6159Z" fill="#7FC047"/>
</svg>
