<svg width="24" height="24" viewBox="0 0 24 24" fill="none" xmlns="http://www.w3.org/2000/svg">
<path d="M16.2628 10.0465V7.03209C16.2628 5.9098 15.353 5 14.2307 5H8.03209C6.9098 5 6 5.9098 6 7.03209V16.9679C6 18.0902 6.9098 19 8.03209 19H14.2307C15.353 19 16.2628 18.0902 16.2628 16.9679V14.5233" stroke="#DC2626" stroke-linecap="round"/>
<path d="M11.132 11.7121C10.8558 11.7121 10.632 11.936 10.632 12.2121C10.632 12.4882 10.8558 12.7121 11.132 12.7121V11.7121ZM21.3536 12.5657C21.5488 12.3704 21.5488 12.0538 21.3536 11.8585L18.1716 8.67656C17.9763 8.4813 17.6597 8.4813 17.4645 8.67656C17.2692 8.87183 17.2692 9.18841 17.4645 9.38367L20.2929 12.2121L17.4645 15.0405C17.2692 15.2358 17.2692 15.5524 17.4645 15.7476C17.6597 15.9429 17.9763 15.9429 18.1716 15.7476L21.3536 12.5657ZM11.132 12.7121H21V11.7121H11.132V12.7121Z" fill="#DC2626"/>
</svg>
