<svg width="40" height="40" viewBox="0 0 40 40" fill="none" xmlns="http://www.w3.org/2000/svg">
<path d="M20.0018 6.28559C22.7592 6.2855 25.4527 7.11662 27.7306 8.67046C30.0085 10.2243 31.7651 12.4287 32.7712 14.996C33.7772 17.5632 33.9859 20.3741 33.3701 23.0618C32.7542 25.7495 31.3424 28.1891 29.319 30.0623C27.2955 31.9355 24.7543 33.1553 22.027 33.5624C19.2998 33.9695 16.5131 33.545 14.0308 32.3445C11.5484 31.1439 9.48565 29.2229 8.11166 26.8323C6.73767 24.4416 6.1163 21.6923 6.32862 18.9432C6.34003 18.7934 6.32182 18.6429 6.27504 18.5001C6.22826 18.3574 6.15382 18.2253 6.05597 18.1113C5.95813 17.9973 5.83879 17.9037 5.70477 17.8359C5.57076 17.768 5.42469 17.7272 5.27491 17.7158C5.12513 17.7044 4.97456 17.7226 4.83182 17.7694C4.68907 17.8162 4.55694 17.8906 4.44296 17.9885C4.32899 18.0863 4.2354 18.2056 4.16754 18.3396C4.09968 18.4736 4.05889 18.6197 4.04748 18.7695C3.75797 22.5196 4.79906 26.2519 6.9879 29.3108C9.17674 32.3697 12.3734 34.5597 16.0165 35.4962C19.6595 36.4326 23.5161 36.0557 26.9088 34.4316C30.3016 32.8074 33.0137 30.0399 34.5687 26.6151C36.1238 23.1902 36.4224 19.327 35.4121 15.7039C34.4019 12.0808 32.1473 8.92939 29.0445 6.80319C25.9416 4.677 22.1888 3.71193 18.4451 4.07747C14.7014 4.44301 11.2061 6.11578 8.57319 8.80202V5.14279C8.57319 4.83971 8.45278 4.54903 8.23846 4.33472C8.02413 4.1204 7.73344 4 7.43033 4C7.12723 4 6.83654 4.1204 6.62221 4.33472C6.40789 4.54903 6.28748 4.83971 6.28748 5.14279V11.9996C6.28748 12.3027 6.40789 12.5933 6.62221 12.8076C6.83654 13.022 7.12723 13.1424 7.43033 13.1424H14.2875C14.5906 13.1424 14.8813 13.022 15.0956 12.8076C15.3099 12.5933 15.4303 12.3027 15.4303 11.9996C15.4303 11.6965 15.3099 11.4058 15.0956 11.1915C14.8813 10.9772 14.5906 10.8568 14.2875 10.8568H9.78005C11.0648 9.41675 12.6398 8.26496 14.4016 7.4771C16.1633 6.68925 18.0719 6.28318 20.0018 6.28559ZM20.0018 11.9996C20.0018 11.6965 19.8813 11.4058 19.667 11.1915C19.4527 10.9772 19.162 10.8568 18.8589 10.8568C18.5558 10.8568 18.2651 10.9772 18.0508 11.1915C17.8364 11.4058 17.716 11.6965 17.716 11.9996V21.1419C17.716 21.445 17.8364 21.7357 18.0508 21.95C18.2651 22.1643 18.5558 22.2847 18.8589 22.2847H25.716C26.0191 22.2847 26.3098 22.1643 26.5242 21.95C26.7385 21.7357 26.8589 21.445 26.8589 21.1419C26.8589 20.8388 26.7385 20.5482 26.5242 20.3338C26.3098 20.1195 26.0191 19.9991 25.716 19.9991H20.0018V11.9996Z" fill="#7FC047"/>
</svg>
