<svg width="43" height="43" viewBox="0 0 43 43" fill="none" xmlns="http://www.w3.org/2000/svg">
<path d="M10.0978 32.9021C12.736 35.5402 16.2073 37.1819 19.9203 37.5475C23.6332 37.913 27.3581 36.9796 30.46 34.9065C33.5619 32.8334 35.849 29.7488 36.9314 26.1784C38.0139 22.608 37.8247 18.7727 36.3962 15.3261C34.9677 11.8794 32.3883 9.03484 29.0974 7.27699C25.8066 5.51914 22.008 4.95683 18.349 5.68589C14.69 6.41494 11.3971 8.39025 9.03131 11.2752C6.66555 14.1601 5.37338 17.7761 5.375 21.5071V25.0832" stroke="#F2F2F2" stroke-width="1.5" stroke-linecap="round" stroke-linejoin="round"/>
<path d="M1.79175 21.4997L5.37508 25.083L8.95841 21.4997M19.7084 14.333V23.2913H28.6667" stroke="#F2F2F2" stroke-width="1.5" stroke-linecap="round" stroke-linejoin="round"/>
</svg>
