<svg width="41" height="41" viewBox="0 0 41 41" fill="none" xmlns="http://www.w3.org/2000/svg">
<path d="M24.9051 17.6395V13.7215C24.9051 11.8042 23.3508 10.25 21.4336 10.25H12.0131C10.0959 10.25 8.54163 11.8042 8.54163 13.7215V27.2785C8.54163 29.1958 10.0959 30.75 12.0131 30.75H21.4336C23.3508 30.75 24.9051 29.1958 24.9051 27.2785V24.1948" stroke="#ef4444" stroke-width="1.70833" stroke-linecap="round"/>
<path d="M18.7242 19.9564C18.2525 19.9564 17.8701 20.3388 17.8701 20.8105C17.8701 21.2823 18.2525 21.6647 18.7242 21.6647V19.9564ZM35.0623 21.4145C35.3959 21.081 35.3959 20.5401 35.0623 20.2066L29.6264 14.7707C29.2929 14.4371 28.752 14.4371 28.4185 14.7707C28.0849 15.1042 28.0849 15.6451 28.4185 15.9787L33.2503 20.8105L28.4185 25.6424C28.0849 25.976 28.0849 26.5168 28.4185 26.8504C28.752 27.184 29.2929 27.184 29.6264 26.8504L35.0623 21.4145ZM18.7242 21.6647H34.4583V19.9564H18.7242V21.6647Z" fill="#ef4444"/>
</svg>
