<svg width="38" height="33" viewBox="0 0 38 33" fill="none" xmlns="http://www.w3.org/2000/svg">
<path d="M25.2632 12.6432V6C25.2632 3.79086 23.4723 2 21.2632 2H6C3.79086 2 2 3.79086 2 6V27.5263C2 29.7355 3.79086 31.5263 6 31.5263H21.2632C23.4723 31.5263 25.2632 29.7355 25.2632 27.5263V22.0848" stroke="#C04747" stroke-width="2" stroke-linecap="round"/>
<path d="M13.6328 16.2104C13.0805 16.2104 12.6328 16.6582 12.6328 17.2104C12.6328 17.7627 13.0805 18.2104 13.6328 18.2104V16.2104ZM36.7083 17.9176C37.0989 17.527 37.0989 16.8939 36.7083 16.5033L30.3444 10.1394C29.9539 9.74886 29.3207 9.74886 28.9302 10.1394C28.5396 10.5299 28.5396 11.1631 28.9302 11.5536L34.587 17.2104L28.9302 22.8673C28.5396 23.2578 28.5396 23.891 28.9302 24.2815C29.3207 24.672 29.9539 24.672 30.3444 24.2815L36.7083 17.9176ZM13.6328 18.2104H36.0012V16.2104H13.6328V18.2104Z" fill="#C04747"/>
</svg>
