<svg width="24" height="24" viewBox="0 0 24 24" fill="none" xmlns="http://www.w3.org/2000/svg">
<path d="M15.2628 10.0465V7.03209C15.2628 5.9098 14.353 5 13.2307 5H7.03209C5.9098 5 5 5.9098 5 7.03209V16.9679C5 18.0902 5.9098 19 7.03209 19H13.2307C14.353 19 15.2628 18.0902 15.2628 16.9679V14.5233" stroke="#A7A7A7" stroke-linecap="round"/>
<path d="M10.132 11.7121C9.85582 11.7121 9.63196 11.9359 9.63196 12.2121C9.63196 12.4882 9.85582 12.7121 10.132 12.7121V11.7121ZM20.3536 12.5656C20.5488 12.3704 20.5488 12.0538 20.3536 11.8585L17.1716 8.67653C16.9763 8.48127 16.6597 8.48127 16.4645 8.67653C16.2692 8.87179 16.2692 9.18838 16.4645 9.38364L19.2929 12.2121L16.4645 15.0405C16.2692 15.2358 16.2692 15.5523 16.4645 15.7476C16.6597 15.9429 16.9763 15.9429 17.1716 15.7476L20.3536 12.5656ZM10.132 12.7121H20V11.7121H10.132V12.7121Z" fill="#A7A7A7"/>
</svg>
