<svg width="24" height="24" viewBox="0 0 24 24" fill="none" xmlns="http://www.w3.org/2000/svg">
<path d="M12.0009 5.14279C13.3796 5.14275 14.7263 5.55831 15.8653 6.33523C17.0043 7.11215 17.8826 8.21435 18.3856 9.49799C18.8886 10.7816 18.9929 12.1871 18.685 13.5309C18.3771 14.8748 17.6712 16.0946 16.6595 17.0312C15.6477 17.9678 14.3772 18.5776 13.0135 18.7812C11.6499 18.9847 10.2566 18.7725 9.01539 18.1722C7.77421 17.5719 6.74282 16.6115 6.05583 15.4161C5.36884 14.2208 5.05815 12.8462 5.16431 11.4716C5.17001 11.3967 5.16091 11.3214 5.13752 11.2501C5.11413 11.1787 5.07691 11.1126 5.02799 11.0556C4.97906 10.9987 4.91939 10.9519 4.85239 10.9179C4.78538 10.884 4.71235 10.8636 4.63745 10.8579C4.56256 10.8522 4.48728 10.8613 4.41591 10.8847C4.34454 10.9081 4.27847 10.9453 4.22148 10.9942C4.16449 11.0431 4.1177 11.1028 4.08377 11.1698C4.04984 11.2368 4.02944 11.3099 4.02374 11.3847C3.87899 13.2598 4.39953 15.1259 5.49395 16.6554C6.58837 18.1849 8.18669 19.2799 10.0082 19.7481C11.8298 20.2163 13.758 20.0279 15.4544 19.2158C17.1508 18.4037 18.5068 17.0199 19.2844 15.3075C20.0619 13.5951 20.2112 11.6635 19.7061 9.85194C19.2009 8.04038 18.0737 6.46469 16.5222 5.4016C14.9708 4.3385 13.0944 3.85596 11.2225 4.03873C9.35068 4.2215 7.60306 5.05789 6.2866 6.40101V4.5714C6.2866 4.41985 6.22639 4.27452 6.11923 4.16736C6.01206 4.0602 5.86672 4 5.71517 4C5.56362 4 5.41827 4.0602 5.31111 4.16736C5.20394 4.27452 5.14374 4.41985 5.14374 4.5714V7.99978C5.14374 8.15133 5.20394 8.29666 5.31111 8.40382C5.41827 8.51098 5.56362 8.57118 5.71517 8.57118H9.14374C9.29529 8.57118 9.44063 8.51098 9.5478 8.40382C9.65496 8.29666 9.71516 8.15133 9.71516 7.99978C9.71516 7.84824 9.65496 7.7029 9.5478 7.59574C9.44063 7.48858 9.29529 7.42838 9.14374 7.42838H6.89002C7.53241 6.70838 8.31992 6.13248 9.20079 5.73855C10.0817 5.34462 11.0359 5.14159 12.0009 5.14279ZM12.0009 7.99978C12.0009 7.84824 11.9407 7.7029 11.8335 7.59574C11.7263 7.48858 11.581 7.42838 11.4294 7.42838C11.2779 7.42838 11.1326 7.48858 11.0254 7.59574C10.9182 7.7029 10.858 7.84824 10.858 7.99978V12.571C10.858 12.7225 10.9182 12.8678 11.0254 12.975C11.1326 13.0822 11.2779 13.1424 11.4294 13.1424H14.858C15.0096 13.1424 15.1549 13.0822 15.2621 12.975C15.3692 12.8678 15.4294 12.7225 15.4294 12.571C15.4294 12.4194 15.3692 12.2741 15.2621 12.1669C15.1549 12.0598 15.0096 11.9996 14.858 11.9996H12.0009V7.99978Z" fill="#7FC047"/>
</svg>
