<svg width="24" height="24" viewBox="0 0 24 24" fill="none" xmlns="http://www.w3.org/2000/svg">
<path d="M13.8182 4.69799L13.8182 19.8259C13.8182 19.9215 13.9 19.9998 14 19.9998H15.3636C15.4636 19.9998 15.5455 19.9215 15.5455 19.8259L15.5455 6.66968L19.7045 9.80655C19.8227 9.89568 20 9.81525 20 9.6696V8.09356C20 7.98704 19.95 7.88704 19.8614 7.81965L14.9955 4.15018C14.5182 3.7915 13.8182 4.1154 13.8182 4.69799ZM8.45455 4.17409L8.45455 17.3303L4.29545 14.1934C4.17727 14.1043 4 14.1847 4 14.3303V15.9064C4 16.0129 4.05 16.1129 4.13864 16.1803L9.00455 19.8498C9.48182 20.2085 10.1818 19.8845 10.1818 19.3041L10.1818 4.17409C10.1818 4.07844 10.1 4.00019 10 4.00019H8.63636C8.53636 4.00019 8.45455 4.07844 8.45455 4.17409Z" fill="#A7A7A7"/>
</svg>
