<svg width="24" height="24" viewBox="0 0 24 24" fill="none" xmlns="http://www.w3.org/2000/svg">
<path d="M19.6192 8.85019L19.2395 8.20774C18.9524 7.72186 18.8088 7.47893 18.5645 7.38205C18.3202 7.28518 18.0439 7.36162 17.4914 7.5145L16.5527 7.77228C16.2 7.8516 15.8298 7.8066 15.5077 7.64524L15.2486 7.49946C14.9724 7.32697 14.7599 7.07264 14.6423 6.7737L14.3854 6.02566C14.2165 5.53065 14.1321 5.28314 13.931 5.14157C13.73 5 13.4629 5 12.9288 5H12.0712C11.5371 5 11.2701 5 11.069 5.14157C10.8679 5.28314 10.7835 5.53065 10.6146 6.02566L10.3577 6.7737C10.2401 7.07264 10.0276 7.32697 9.75143 7.49946L9.49229 7.64524C9.17017 7.8066 8.80006 7.8516 8.44728 7.77228L7.50865 7.5145C6.95608 7.36162 6.6798 7.28518 6.43551 7.38205C6.19122 7.47893 6.04765 7.72186 5.7605 8.20774L5.38082 8.85019C5.11166 9.30562 4.97708 9.53335 5.0032 9.77576C5.02931 10.0182 5.20948 10.2135 5.56981 10.6042L6.36292 11.4687C6.55676 11.708 6.69439 12.125 6.69439 12.4999C6.69439 12.875 6.55681 13.2918 6.36294 13.5312L5.56981 14.3957C5.20948 14.7864 5.02932 14.9817 5.0032 15.2242C4.97708 15.4666 5.11166 15.6943 5.38082 16.1497L5.76049 16.7922C6.04764 17.278 6.19122 17.521 6.43551 17.6178C6.6798 17.7147 6.95609 17.6383 7.50866 17.4854L8.44725 17.2276C8.80009 17.1483 9.17027 17.1933 9.49243 17.3547L9.75153 17.5005C10.0277 17.673 10.2401 17.9273 10.3577 18.2262L10.6146 18.9744C10.7835 19.4694 10.8679 19.7169 11.069 19.8585C11.2701 20 11.5371 20 12.0712 20H12.9288C13.4629 20 13.73 20 13.931 19.8585C14.1321 19.7169 14.2165 19.4694 14.3854 18.9744L14.6424 18.2262C14.7599 17.9273 14.9723 17.673 15.2485 17.5005L15.5076 17.3547C15.8297 17.1933 16.1999 17.1483 16.5527 17.2276L17.4914 17.4854C18.0439 17.6383 18.3202 17.7147 18.5645 17.6178C18.8088 17.521 18.9524 17.278 19.2395 16.7922L19.6192 16.1497C19.8883 15.6943 20.0229 15.4666 19.9968 15.2242C19.9707 14.9817 19.7905 14.7864 19.4302 14.3957L18.637 13.5312C18.4432 13.2918 18.3056 12.875 18.3056 12.4999C18.3056 12.125 18.4433 11.708 18.637 11.4687L19.4302 10.6042C19.7905 10.2135 19.9707 10.0182 19.9968 9.77576C20.0229 9.53335 19.8883 9.30562 19.6192 8.85019Z" stroke="#A7A7A7" stroke-linecap="round"/>
<path d="M15.1783 12.5002C15.1783 13.9795 13.9791 15.1788 12.4997 15.1788C11.0204 15.1788 9.82117 13.9795 9.82117 12.5002C9.82117 11.0209 11.0204 9.82162 12.4997 9.82162C13.9791 9.82162 15.1783 11.0209 15.1783 12.5002Z" stroke="#A7A7A7"/>
</svg>
