<svg width="24" height="24" viewBox="0 0 24 24" fill="none" xmlns="http://www.w3.org/2000/svg">
<path d="M17.8 8.36364H5.8C5.64087 8.36364 5.48826 8.30138 5.37574 8.19056C5.26321 8.07975 5.2 7.92945 5.2 7.77273C5.2 7.61601 5.26321 7.46571 5.37574 7.35489C5.48826 7.24407 5.64087 7.18182 5.8 7.18182H16C16.1591 7.18182 16.3117 7.11956 16.4243 7.00874C16.5368 6.89793 16.6 6.74763 16.6 6.59091C16.6 6.43419 16.5368 6.28389 16.4243 6.17307C16.3117 6.06226 16.1591 6 16 6H5.8C5.32261 6 4.86477 6.18677 4.52721 6.51922C4.18964 6.85167 4 7.30257 4 7.77273V17.2273C4 17.6974 4.18964 18.1483 4.52721 18.4808C4.86477 18.8132 5.32261 19 5.8 19H17.8C18.1183 19 18.4235 18.8755 18.6485 18.6539C18.8736 18.4322 19 18.1316 19 17.8182V9.54545C19 9.23202 18.8736 8.93142 18.6485 8.70978C18.4235 8.48815 18.1183 8.36364 17.8 8.36364ZM17.8 17.8182H5.8C5.64087 17.8182 5.48826 17.7559 5.37574 17.6451C5.26321 17.5343 5.2 17.384 5.2 17.2273V9.44426C5.39266 9.51152 5.5956 9.54575 5.8 9.54545H17.8V17.8182ZM14.2 13.3864C14.2 13.2111 14.2528 13.0397 14.3517 12.8939C14.4506 12.7482 14.5911 12.6346 14.7556 12.5675C14.92 12.5004 15.101 12.4828 15.2756 12.517C15.4502 12.5512 15.6105 12.6356 15.7364 12.7596C15.8623 12.8836 15.948 13.0415 15.9827 13.2134C16.0174 13.3854 15.9996 13.5636 15.9315 13.7256C15.8634 13.8875 15.748 14.026 15.6 14.1233C15.452 14.2207 15.278 14.2727 15.1 14.2727C14.8613 14.2727 14.6324 14.1793 14.4636 14.0131C14.2948 13.8469 14.2 13.6214 14.2 13.3864Z" fill="#7FC047"/>
</svg>
