<svg width="24" height="24" viewBox="0 0 24 24" fill="none" xmlns="http://www.w3.org/2000/svg">
<path d="M12.4009 5.14279C13.7796 5.14275 15.1264 5.55831 16.2653 6.33523C17.4043 7.11215 18.2826 8.21435 18.7856 9.49799C19.2886 10.7816 19.393 12.1871 19.0851 13.5309C18.7771 14.8748 18.0712 16.0946 17.0595 17.0312C16.0478 17.9678 14.7772 18.5776 13.4135 18.7812C12.0499 18.9847 10.6566 18.7725 9.41542 18.1722C8.17424 17.5719 7.14285 16.6115 6.45586 15.4161C5.76886 14.2208 5.45817 12.8462 5.56434 11.4716C5.57004 11.3967 5.56093 11.3214 5.53754 11.2501C5.51415 11.1787 5.47693 11.1126 5.42801 11.0556C5.37909 10.9987 5.31942 10.9519 5.25241 10.9179C5.1854 10.884 5.11237 10.8636 5.03748 10.8579C4.96259 10.8522 4.88731 10.8613 4.81593 10.8847C4.74456 10.9081 4.67849 10.9453 4.62151 10.9942C4.56452 11.0431 4.51772 11.1028 4.48379 11.1698C4.44987 11.2368 4.42947 11.3099 4.42376 11.3847C4.27901 13.2598 4.79955 15.1259 5.89397 16.6554C6.9884 18.1849 8.58672 19.2799 10.4083 19.7481C12.2298 20.2163 14.1581 20.0279 15.8545 19.2158C17.5508 18.4037 18.9069 17.0199 19.6844 15.3075C20.4619 13.5951 20.6112 11.6635 20.1061 9.85194C19.601 8.04038 18.4737 6.46469 16.9223 5.4016C15.3708 4.3385 13.4944 3.85596 11.6226 4.03873C9.7507 4.2215 8.00309 5.05789 6.68662 6.40101V4.5714C6.68662 4.41985 6.62642 4.27452 6.51925 4.16736C6.41209 4.0602 6.26674 4 6.11519 4C5.96364 4 5.8183 4.0602 5.71113 4.16736C5.60397 4.27452 5.54376 4.41985 5.54376 4.5714V7.99978C5.54376 8.15133 5.60397 8.29666 5.71113 8.40382C5.8183 8.51098 5.96364 8.57118 6.11519 8.57118H9.54376C9.69531 8.57118 9.84066 8.51098 9.94782 8.40382C10.055 8.29666 10.1152 8.15133 10.1152 7.99978C10.1152 7.84824 10.055 7.7029 9.94782 7.59574C9.84066 7.48858 9.69531 7.42838 9.54376 7.42838H7.29005C7.93243 6.70838 8.71994 6.13248 9.60081 5.73855C10.4817 5.34462 11.436 5.14159 12.4009 5.14279ZM12.4009 7.99978C12.4009 7.84824 12.3407 7.7029 12.2335 7.59574C12.1264 7.48858 11.981 7.42838 11.8295 7.42838C11.6779 7.42838 11.5326 7.48858 11.4254 7.59574C11.3182 7.7029 11.258 7.84824 11.258 7.99978V12.571C11.258 12.7225 11.3182 12.8678 11.4254 12.975C11.5326 13.0822 11.6779 13.1424 11.8295 13.1424H15.258C15.4096 13.1424 15.5549 13.0822 15.6621 12.975C15.7693 12.8678 15.8295 12.7225 15.8295 12.571C15.8295 12.4194 15.7693 12.2741 15.6621 12.1669C15.5549 12.0598 15.4096 11.9996 15.258 11.9996H12.4009V7.99978Z" fill="#9CA3AF"/>
</svg>
