<svg width="41" height="41" viewBox="0 0 41 41" fill="none" xmlns="http://www.w3.org/2000/svg">
<path d="M20.5014 8.78561C22.8568 8.78553 25.1574 9.49544 27.1032 10.8227C29.0489 12.1499 30.5493 14.0329 31.4086 16.2257C32.2679 18.4186 32.4462 20.8196 31.9202 23.1153C31.3941 25.411 30.1882 27.4949 28.4599 29.0949C26.7315 30.6949 24.5609 31.7368 22.2314 32.0845C19.9018 32.4323 17.5216 32.0697 15.4012 31.0442C13.2809 30.0187 11.5189 28.3779 10.3453 26.3359C9.17168 24.2939 8.64092 21.9455 8.82228 19.5973C8.83203 19.4694 8.81647 19.3408 8.77652 19.2189C8.73656 19.0969 8.67297 18.9841 8.5894 18.8867C8.50582 18.7894 8.40388 18.7094 8.28941 18.6515C8.17494 18.5935 8.05017 18.5587 7.92224 18.5489C7.7943 18.5392 7.66569 18.5547 7.54376 18.5947C7.42184 18.6347 7.30897 18.6982 7.21162 18.7818C7.11426 18.8654 7.03432 18.9673 6.97636 19.0818C6.9184 19.1962 6.88355 19.321 6.87381 19.4489C6.62652 22.6522 7.51578 25.8402 9.38542 28.453C11.2551 31.0658 13.9855 32.9364 17.0973 33.7363C20.2091 34.5362 23.5032 34.2142 26.4012 32.827C29.2992 31.4397 31.6158 29.0757 32.944 26.1504C34.2723 23.225 34.5274 19.9251 33.6644 16.8304C32.8015 13.7357 30.8758 11.0439 28.2254 9.22773C25.575 7.4116 22.3695 6.58727 19.1717 6.8995C15.974 7.21173 12.9885 8.64056 10.7395 10.9351V7.80947C10.7395 7.55058 10.6367 7.3023 10.4536 7.11924C10.2705 6.93618 10.0222 6.83333 9.76333 6.83333C9.50443 6.83333 9.25613 6.93618 9.07306 7.11924C8.88999 7.3023 8.78714 7.55058 8.78714 7.80947V13.6663C8.78714 13.9252 8.88999 14.1735 9.07306 14.3565C9.25613 14.5396 9.50443 14.6424 9.76333 14.6424H15.6205C15.8794 14.6424 16.1277 14.5396 16.3107 14.3565C16.4938 14.1735 16.5967 13.9252 16.5967 13.6663C16.5967 13.4074 16.4938 13.1591 16.3107 12.9761C16.1277 12.793 15.8794 12.6902 15.6205 12.6902H11.7704C12.8678 11.4601 14.2131 10.4763 15.7179 9.80336C17.2227 9.1304 18.853 8.78355 20.5014 8.78561ZM20.5014 13.6663C20.5014 13.4074 20.3986 13.1591 20.2155 12.9761C20.0324 12.793 19.7841 12.6902 19.5252 12.6902C19.2663 12.6902 19.018 12.793 18.835 12.9761C18.6519 13.1591 18.549 13.4074 18.549 13.6663V21.4754C18.549 21.7343 18.6519 21.9826 18.835 22.1656C19.018 22.3487 19.2663 22.4515 19.5252 22.4515H25.3824C25.6413 22.4515 25.8896 22.3487 26.0726 22.1656C26.2557 21.9826 26.3585 21.7343 26.3585 21.4754C26.3585 21.2165 26.2557 20.9682 26.0726 20.7852C25.8896 20.6021 25.6413 20.4993 25.3824 20.4993H20.5014V13.6663Z" fill="#7FC047"/>
</svg>
