<svg width="41" height="41" viewBox="0 0 41 41" fill="none" xmlns="http://www.w3.org/2000/svg">
<path d="M20.5015 8.78561C22.8568 8.78553 25.1575 9.49544 27.1032 10.8227C29.049 12.1499 30.5494 14.0329 31.4087 16.2257C32.268 18.4186 32.4463 20.8196 31.9202 23.1153C31.3942 25.411 30.1883 27.4949 28.4599 29.0949C26.7315 30.6949 24.5609 31.7368 22.2314 32.0845C19.9019 32.4323 17.5216 32.0697 15.4013 31.0442C13.2809 30.0187 11.519 28.3779 10.3454 26.3359C9.17174 24.2939 8.64098 21.9455 8.82234 19.5973C8.83209 19.4694 8.81653 19.3408 8.77658 19.2189C8.73662 19.0969 8.67303 18.9841 8.58946 18.8867C8.50588 18.7894 8.40395 18.7094 8.28947 18.6515C8.175 18.5935 8.05024 18.5587 7.9223 18.5489C7.79436 18.5392 7.66575 18.5547 7.54383 18.5947C7.4219 18.6347 7.30903 18.6982 7.21168 18.7818C7.11432 18.8654 7.03438 18.9673 6.97642 19.0818C6.91846 19.1962 6.88361 19.321 6.87387 19.4489C6.62658 22.6522 7.51584 25.8402 9.38548 28.453C11.2551 31.0658 13.9856 32.9364 17.0974 33.7363C20.2092 34.5362 23.5033 34.2142 26.4013 32.827C29.2993 31.4397 31.6158 29.0757 32.9441 26.1504C34.2724 23.225 34.5274 19.9251 33.6645 16.8304C32.8016 13.7357 30.8758 11.0439 28.2255 9.22773C25.5751 7.4116 22.3696 6.58727 19.1718 6.8995C15.9741 7.21173 12.9885 8.64056 10.7396 10.9351V7.80947C10.7396 7.55058 10.6367 7.3023 10.4537 7.11924C10.2706 6.93618 10.0223 6.83333 9.76339 6.83333C9.50449 6.83333 9.25619 6.93618 9.07312 7.11924C8.89005 7.3023 8.7872 7.55058 8.7872 7.80947V13.6663C8.7872 13.9252 8.89005 14.1735 9.07312 14.3565C9.25619 14.5396 9.50449 14.6424 9.76339 14.6424H15.6205C15.8794 14.6424 16.1277 14.5396 16.3108 14.3565C16.4939 14.1735 16.5967 13.9252 16.5967 13.6663C16.5967 13.4074 16.4939 13.1591 16.3108 12.9761C16.1277 12.793 15.8794 12.6902 15.6205 12.6902H11.7704C12.8678 11.4601 14.2132 10.4763 15.718 9.80336C17.2228 9.1304 18.853 8.78355 20.5015 8.78561ZM20.5015 13.6663C20.5015 13.4074 20.3986 13.1591 20.2156 12.9761C20.0325 12.793 19.7842 12.6902 19.5253 12.6902C19.2664 12.6902 19.0181 12.793 18.835 12.9761C18.6519 13.1591 18.5491 13.4074 18.5491 13.6663V21.4754C18.5491 21.7343 18.6519 21.9826 18.835 22.1656C19.0181 22.3487 19.2664 22.4515 19.5253 22.4515H25.3824C25.6413 22.4515 25.8896 22.3487 26.0727 22.1656C26.2558 21.9826 26.3586 21.7343 26.3586 21.4754C26.3586 21.2165 26.2558 20.9682 26.0727 20.7852C25.8896 20.6021 25.6413 20.4993 25.3824 20.4993H20.5015V13.6663Z" fill="#A7A7A7"/>
</svg>
