<svg width="24" height="24" viewBox="0 0 24 24" fill="none" xmlns="http://www.w3.org/2000/svg">
<path d="M14.0909 5.61074L14.0909 18.8476C14.0909 18.9313 14.1625 18.9998 14.25 18.9998H15.4432C15.5307 18.9998 15.6023 18.9313 15.6023 18.8476L15.6023 7.33597L19.2415 10.0807C19.3449 10.1587 19.5 10.0883 19.5 9.9609V8.58186C19.5 8.48866 19.4563 8.40116 19.3787 8.34219L15.121 5.13141C14.7034 4.81756 14.0909 5.10097 14.0909 5.61074ZM9.39773 5.15233L9.39773 16.664L5.75852 13.9192C5.65511 13.8412 5.5 13.9116 5.5 14.0391V15.4181C5.5 15.5113 5.54375 15.5988 5.62131 15.6578L9.87898 18.8685C10.2966 19.1824 10.9091 18.899 10.9091 18.3911L10.9091 5.15233C10.9091 5.06864 10.8375 5.00016 10.75 5.00016L9.55682 5.00016C9.46932 5.00016 9.39773 5.06864 9.39773 5.15233Z" fill="#9CA3AF"/>
</svg>
