<svg width="24" height="24" viewBox="0 0 24 24" fill="none" xmlns="http://www.w3.org/2000/svg">
<path d="M19.1192 7.85019L18.7395 7.20774C18.4524 6.72186 18.3088 6.47893 18.0645 6.38205C17.8202 6.28518 17.5439 6.36162 16.9914 6.5145L16.0527 6.77228C15.7 6.8516 15.3298 6.8066 15.0077 6.64524L14.7486 6.49946C14.4724 6.32697 14.2599 6.07264 14.1423 5.7737L13.8854 5.02566C13.7165 4.53065 13.6321 4.28314 13.431 4.14157C13.23 4 12.9629 4 12.4288 4H11.5712C11.0371 4 10.7701 4 10.569 4.14157C10.3679 4.28314 10.2835 4.53065 10.1146 5.02566L9.8577 5.7737C9.7401 6.07264 9.52764 6.32697 9.25143 6.49946L8.99229 6.64524C8.67017 6.8066 8.30006 6.8516 7.94728 6.77228L7.00865 6.5145C6.45608 6.36162 6.1798 6.28518 5.93551 6.38205C5.69122 6.47893 5.54765 6.72186 5.2605 7.20774L4.88082 7.85019C4.61166 8.30562 4.47708 8.53335 4.5032 8.77576C4.52931 9.01818 4.70948 9.21353 5.06981 9.60424L5.86292 10.4687C6.05676 10.708 6.19439 11.125 6.19439 11.4999C6.19439 11.875 6.05681 12.2918 5.86294 12.5312L5.06981 13.3957C4.70948 13.7864 4.52932 13.9817 4.5032 14.2242C4.47708 14.4666 4.61166 14.6943 4.88082 15.1497L5.26049 15.7922C5.54764 16.278 5.69122 16.521 5.93551 16.6178C6.1798 16.7147 6.45609 16.6383 7.00866 16.4854L7.94725 16.2276C8.30009 16.1483 8.67027 16.1933 8.99243 16.3547L9.25153 16.5005C9.52769 16.673 9.7401 16.9273 9.85768 17.2262L10.1146 17.9744C10.2835 18.4694 10.3679 18.7169 10.569 18.8585C10.7701 19 11.0371 19 11.5712 19H12.4288C12.9629 19 13.23 19 13.431 18.8585C13.6321 18.7169 13.7165 18.4694 13.8854 17.9744L14.1424 17.2262C14.2599 16.9273 14.4723 16.673 14.7485 16.5005L15.0076 16.3547C15.3297 16.1933 15.6999 16.1483 16.0527 16.2276L16.9914 16.4854C17.5439 16.6383 17.8202 16.7147 18.0645 16.6178C18.3088 16.521 18.4524 16.278 18.7395 15.7922L19.1192 15.1497C19.3883 14.6943 19.5229 14.4666 19.4968 14.2242C19.4707 13.9817 19.2905 13.7864 18.9302 13.3957L18.137 12.5312C17.9432 12.2918 17.8056 11.875 17.8056 11.4999C17.8056 11.125 17.9433 10.708 18.137 10.4687L18.9302 9.60424C19.2905 9.21353 19.4707 9.01818 19.4968 8.77576C19.5229 8.53335 19.3883 8.30562 19.1192 7.85019Z" stroke="#9CA3AF" stroke-linecap="round"/>
<path d="M14.5783 11.5002C14.5783 12.9796 13.3791 14.1788 11.8998 14.1788C10.4204 14.1788 9.22119 12.9796 9.22119 11.5002C9.22119 10.0209 10.4204 8.82166 11.8998 8.82166C13.3791 8.82166 14.5783 10.0209 14.5783 11.5002Z" stroke="#9CA3AF"/>
</svg>
