<svg width="34" height="35" viewBox="0 0 34 35" fill="none" xmlns="http://www.w3.org/2000/svg">
<path d="M32.1876 10.2137L31.3776 8.84317C30.765 7.80664 30.4588 7.28839 29.9376 7.08171C29.4164 6.87506 28.827 7.03813 27.6482 7.36427L25.6459 7.91419C24.8933 8.08341 24.1036 7.98741 23.4165 7.64317L22.8637 7.33218C22.2744 6.96419 21.8211 6.42163 21.5702 5.78389L21.0223 4.18808C20.6619 3.13205 20.4817 2.60403 20.0528 2.30202C19.624 2 19.0542 2 17.9147 2H16.0853C14.9459 2 14.3761 2 13.9472 2.30202C13.5183 2.60403 13.3381 3.13205 12.9778 4.18808L12.4298 5.78389C12.1789 6.42163 11.7256 6.96419 11.1364 7.33218L10.5835 7.64317C9.89637 7.98741 9.10679 8.08341 8.3542 7.91419L6.35178 7.36427C5.17297 7.03813 4.58358 6.87506 4.06242 7.08171C3.54127 7.28839 3.23499 7.80664 2.62239 8.84317L1.81242 10.2137C1.23821 11.1853 0.951095 11.6711 1.00682 12.1883C1.06254 12.7054 1.4469 13.1222 2.2156 13.9557L3.90756 15.8C4.3211 16.3104 4.61469 17.2 4.61469 17.9998C4.61469 18.8 4.3212 19.6893 3.90761 20.1998L2.2156 22.0442C1.4469 22.8778 1.06255 23.2944 1.00682 23.8117C0.951095 24.3288 1.23821 24.8146 1.81242 25.7861L2.62238 27.1566C3.23495 28.1931 3.54127 28.7115 4.06242 28.9181C4.58358 29.1248 5.17299 28.9618 6.35181 28.6355L8.35414 28.0856C9.10686 27.9163 9.89658 28.0125 10.5838 28.3568L11.1366 28.6678C11.7257 29.0358 12.1789 29.5782 12.4297 30.216L12.9778 31.812C13.3381 32.868 13.5183 33.396 13.9472 33.6981C14.3761 34 14.9459 34 16.0853 34H17.9147C19.0542 34 19.624 34 20.0528 33.6981C20.4817 33.396 20.6619 32.868 21.0223 31.812L21.5704 30.216C21.8211 29.5782 22.2742 29.0358 22.8635 28.6678L23.4162 28.3568C24.1035 28.0125 24.8931 27.9163 25.6459 28.0856L27.6482 28.6355C28.827 28.9618 29.4164 29.1248 29.9376 28.9181C30.4588 28.7115 30.765 28.1931 31.3776 27.1566L32.1876 25.7861C32.7618 24.8146 33.0488 24.3288 32.9932 23.8117C32.9374 23.2944 32.5531 22.8778 31.7844 22.0442L30.0924 20.1998C29.6788 19.6893 29.3852 18.8 29.3852 17.9998C29.3852 17.2 29.679 16.3104 30.0924 15.8L31.7844 13.9557C32.5531 13.1222 32.9374 12.7054 32.9932 12.1883C33.0488 11.6711 32.7618 11.1853 32.1876 10.2137Z" stroke="#8A8A8E" stroke-width="2" stroke-linecap="round"/>
<path d="M22.7137 18.0004C22.7137 21.1563 20.1553 23.7147 16.9994 23.7147C13.8435 23.7147 11.2852 21.1563 11.2852 18.0004C11.2852 14.8445 13.8435 12.2861 16.9994 12.2861C20.1553 12.2861 22.7137 14.8445 22.7137 18.0004Z" stroke="#8A8A8E" stroke-width="2"/>
</svg>
