<svg width="41" height="41" viewBox="0 0 41 41" fill="none" xmlns="http://www.w3.org/2000/svg">
<path d="M31.8511 14.6806L31.2457 13.6562C30.7879 12.8815 30.559 12.4942 30.1695 12.3397C29.7799 12.1853 29.3394 12.3071 28.4584 12.5509L26.9618 12.9619C26.3994 13.0884 25.8092 13.0166 25.2956 12.7593L24.8824 12.5269C24.442 12.2519 24.1032 11.8464 23.9157 11.3697L23.5062 10.177C23.2368 9.38775 23.1022 8.99312 22.7816 8.76739C22.4611 8.54166 22.0353 8.54166 21.1836 8.54166H19.8163C18.9647 8.54166 18.5389 8.54166 18.2183 8.76739C17.8977 8.99312 17.7631 9.38775 17.4938 10.177L17.0842 11.3697C16.8967 11.8464 16.5579 12.2519 16.1175 12.5269L15.7043 12.7593C15.1907 13.0166 14.6006 13.0884 14.0381 12.9619L12.5415 12.5509C11.6605 12.3071 11.22 12.1853 10.8305 12.3397C10.441 12.4942 10.212 12.8815 9.7542 13.6562L9.14882 14.6806C8.71966 15.4067 8.50507 15.7698 8.54673 16.1564C8.58837 16.5429 8.87564 16.8543 9.45016 17.4773L10.7147 18.8557C11.0238 19.2372 11.2432 19.9021 11.2432 20.4999C11.2432 21.0979 11.0239 21.7626 10.7148 22.1441L9.45016 23.5226C8.87564 24.1456 8.58838 24.457 8.54673 24.8436C8.50507 25.2301 8.71966 25.5932 9.14882 26.3193L9.75418 27.3436C10.212 28.1183 10.441 28.5057 10.8305 28.6601C11.22 28.8146 11.6605 28.6928 12.5415 28.4489L14.0381 28.0379C14.6007 27.9114 15.1909 27.9833 15.7046 28.2406L16.1177 28.4731C16.558 28.7481 16.8967 29.1535 17.0841 29.6302L17.4938 30.823C17.7631 31.6123 17.8977 32.0069 18.2183 32.2327C18.5389 32.4583 18.9647 32.4583 19.8163 32.4583H21.1836C22.0353 32.4583 22.4611 32.4583 22.7816 32.2327C23.1022 32.0069 23.2368 31.6123 23.5062 30.823L23.9158 29.6302C24.1032 29.1535 24.4419 28.7481 24.8823 28.4731L25.2954 28.2406C25.809 27.9833 26.3992 27.9114 26.9618 28.0379L28.4584 28.4489C29.3394 28.6928 29.7799 28.8146 30.1695 28.6601C30.559 28.5057 30.7879 28.1183 31.2457 27.3436L31.8511 26.3193C32.2803 25.5932 32.4948 25.2301 32.4532 24.8436C32.4115 24.457 32.1243 24.1456 31.5498 23.5226L30.2851 22.1441C29.9761 21.7626 29.7566 21.0979 29.7566 20.4999C29.7566 19.9021 29.9762 19.2372 30.2851 18.8557L31.5498 17.4773C32.1243 16.8543 32.4115 16.5429 32.4532 16.1564C32.4948 15.7698 32.2803 15.4067 31.8511 14.6806Z" stroke="#7FC047" stroke-width="1.70833" stroke-linecap="round"/>
<path d="M24.7704 20.5003C24.7704 22.859 22.8583 24.7712 20.4996 24.7712C18.1408 24.7712 16.2288 22.859 16.2288 20.5003C16.2288 18.1416 18.1408 16.2295 20.4996 16.2295C22.8583 16.2295 24.7704 18.1416 24.7704 20.5003Z" stroke="#7FC047" stroke-width="1.70833"/>
</svg>
