<svg width="24" height="24" viewBox="0 0 24 24" fill="none" xmlns="http://www.w3.org/2000/svg">
<path d="M18.6 8.36364H6.59999C6.44086 8.36364 6.28825 8.30138 6.17572 8.19056C6.0632 8.07975 5.99999 7.92945 5.99999 7.77273C5.99999 7.61601 6.0632 7.46571 6.17572 7.35489C6.28825 7.24407 6.44086 7.18182 6.59999 7.18182H16.8C16.9591 7.18182 17.1117 7.11956 17.2243 7.00874C17.3368 6.89793 17.4 6.74763 17.4 6.59091C17.4 6.43419 17.3368 6.28389 17.2243 6.17307C17.1117 6.06226 16.9591 6 16.8 6H6.59999C6.1226 6 5.66476 6.18677 5.3272 6.51922C4.98963 6.85167 4.79999 7.30257 4.79999 7.77273V17.2273C4.79999 17.6974 4.98963 18.1483 5.3272 18.4808C5.66476 18.8132 6.1226 19 6.59999 19H18.6C18.9182 19 19.2235 18.8755 19.4485 18.6539C19.6736 18.4322 19.8 18.1316 19.8 17.8182V9.54545C19.8 9.23202 19.6736 8.93142 19.4485 8.70978C19.2235 8.48815 18.9182 8.36364 18.6 8.36364ZM18.6 17.8182H6.59999C6.44086 17.8182 6.28825 17.7559 6.17572 17.6451C6.0632 17.5343 5.99999 17.384 5.99999 17.2273V9.44426C6.19264 9.51152 6.39558 9.54575 6.59999 9.54545H18.6V17.8182ZM15 13.3864C15 13.2111 15.0528 13.0397 15.1517 12.8939C15.2506 12.7482 15.3911 12.6346 15.5556 12.5675C15.72 12.5004 15.901 12.4828 16.0756 12.517C16.2502 12.5512 16.4105 12.6356 16.5364 12.7596C16.6623 12.8836 16.748 13.0415 16.7827 13.2134C16.8174 13.3854 16.7996 13.5636 16.7315 13.7256C16.6634 13.8875 16.548 14.026 16.4 14.1233C16.252 14.2207 16.078 14.2727 15.9 14.2727C15.6613 14.2727 15.4324 14.1793 15.2636 14.0131C15.0948 13.8469 15 13.6214 15 13.3864Z" fill="#65A30D"/>
</svg>
