<svg width="24" height="24" viewBox="0 0 24 24" fill="none" xmlns="http://www.w3.org/2000/svg">
<path d="M18.6 8.36364H6.60005C6.44092 8.36364 6.28831 8.30138 6.17578 8.19056C6.06326 8.07975 6.00005 7.92945 6.00005 7.77273C6.00005 7.61601 6.06326 7.46571 6.17578 7.35489C6.28831 7.24407 6.44092 7.18182 6.60005 7.18182H16.8C16.9592 7.18182 17.1118 7.11956 17.2243 7.00874C17.3368 6.89793 17.4 6.74763 17.4 6.59091C17.4 6.43419 17.3368 6.28389 17.2243 6.17307C17.1118 6.06226 16.9592 6 16.8 6H6.60005C6.12266 6 5.66482 6.18677 5.32726 6.51922C4.98969 6.85167 4.80005 7.30257 4.80005 7.77273V17.2273C4.80005 17.6974 4.98969 18.1483 5.32726 18.4808C5.66482 18.8132 6.12266 19 6.60005 19H18.6C18.9183 19 19.2235 18.8755 19.4486 18.6539C19.6736 18.4322 19.8 18.1316 19.8 17.8182V9.54545C19.8 9.23202 19.6736 8.93142 19.4486 8.70978C19.2235 8.48815 18.9183 8.36364 18.6 8.36364ZM18.6 17.8182H6.60005C6.44092 17.8182 6.28831 17.7559 6.17578 17.6451C6.06326 17.5343 6.00005 17.384 6.00005 17.2273V9.44426C6.19271 9.51152 6.39565 9.54575 6.60005 9.54545H18.6V17.8182ZM15 13.3864C15 13.2111 15.0528 13.0397 15.1517 12.8939C15.2506 12.7482 15.3912 12.6346 15.5556 12.5675C15.7201 12.5004 15.901 12.4828 16.0756 12.517C16.2502 12.5512 16.4106 12.6356 16.5364 12.7596C16.6623 12.8836 16.748 13.0415 16.7828 13.2134C16.8175 13.3854 16.7997 13.5636 16.7315 13.7256C16.6634 13.8875 16.5481 14.026 16.4001 14.1233C16.2521 14.2207 16.0781 14.2727 15.9 14.2727C15.6614 14.2727 15.4324 14.1793 15.2637 14.0131C15.0949 13.8469 15 13.6214 15 13.3864Z" fill="#9CA3AF"/>
</svg>
