<svg width="12" height="16" viewBox="0 0 12 16" fill="none" xmlns="http://www.w3.org/2000/svg">
<g clip-path="url(#clip0_4369_1848)">
<path d="M5.29336 14.7061C5.68398 15.0967 6.31836 15.0967 6.70898 14.7061L11.709 9.70605C12.0996 9.31543 12.0996 8.68106 11.709 8.29043C11.3184 7.89981 10.684 7.89981 10.2934 8.29043L6.99961 11.5873L6.99961 1.9998C6.99961 1.44668 6.55273 0.999804 5.99961 0.999804C5.44648 0.999804 4.99961 1.44668 4.99961 1.9998L4.99961 11.5873L1.70586 8.29355C1.31523 7.90293 0.680859 7.90293 0.290234 8.29355C-0.100391 8.68418 -0.100391 9.31855 0.290234 9.70918L5.29023 14.7092L5.29336 14.7061Z" fill="white"/>
</g>
<defs>
<clipPath id="clip0_4369_1848">
<rect width="12" height="16" fill="white" transform="matrix(-1 0 0 -1 12 16)"/>
</clipPath>
</defs>
</svg>
