<svg width="52" height="52" viewBox="0 0 52 52" fill="none" xmlns="http://www.w3.org/2000/svg">
<path d="M26.0054 52C11.6473 52.0048 -0.021637 40.3274 3.01252e-05 25.9753C0.0216973 11.628 11.6521 0.00481641 25.9946 1.48846e-06C40.3527 -0.00481344 52.0216 11.6726 52 26.0247C51.9783 40.372 40.3479 51.9952 26.0054 52ZM21.8971 30.7698C21.5793 30.4664 21.4192 30.3208 21.2663 30.1679C19.48 28.3816 17.7057 26.5832 15.9037 24.8113C14.6181 23.5462 12.7283 23.7906 11.9458 25.288C11.4331 26.2702 11.6353 27.3379 12.5345 28.2407C14.9407 30.6554 17.353 33.0641 19.7653 35.474C21.1207 36.8282 22.4195 36.8294 23.7773 35.474C28.9534 30.3003 34.1282 25.1243 39.3018 19.947C39.4992 19.7496 39.7003 19.5462 39.8604 19.3187C40.4153 18.5278 40.4935 17.6792 40.0433 16.8246C39.5955 15.9735 38.8637 15.5366 37.8959 15.5281C37.0954 15.5209 36.4995 15.9338 35.9579 16.4767C31.4102 21.0316 26.8565 25.5805 22.31 30.1378C22.1439 30.3051 22.0451 30.5411 21.8983 30.7722L21.8971 30.7698Z" fill="#22C55E"/>
</svg>
