<svg width="24" height="24" viewBox="0 0 24 24" fill="none" xmlns="http://www.w3.org/2000/svg">
<path d="M13.273 23.539C13.6937 23.7144 14.1779 23.617 14.499 23.2951L19.7362 18.0579C20.1757 17.6188 20.1757 16.9062 19.7362 16.4671C19.2967 16.0276 18.5848 16.0276 18.1454 16.4671L14.8286 19.7838L14.8286 1.49966C14.8286 0.878207 14.3251 0.374664 13.7036 0.374664C13.0822 0.374664 12.5786 0.878207 12.5786 1.49966L12.5786 22.4997C12.5786 22.9549 12.8525 23.365 13.273 23.539ZM4.2638 7.53227C4.70325 7.97172 5.41516 7.97172 5.85461 7.53227L9.17138 4.2155L9.17138 22.4997C9.17138 23.1211 9.67493 23.6247 10.2964 23.6247C10.9178 23.6247 11.4214 23.1211 11.4214 22.4997L11.4214 1.49967C11.4214 1.04447 11.1475 0.634315 10.727 0.460367C10.5879 0.402505 10.4414 0.374672 10.2968 0.374672C10.0038 0.374672 9.71594 0.488925 9.50097 0.704258L4.26379 5.94144C3.82434 6.38053 3.82434 7.09318 4.2638 7.53227Z" fill="#F2F2F2"/>
</svg>
