<svg width="24" height="24" viewBox="0 0 24 24" fill="none" xmlns="http://www.w3.org/2000/svg">
<path d="M13.2726 23.5387C13.6934 23.7142 14.1775 23.6167 14.4987 23.2948L19.7358 18.0577C20.1753 17.6186 20.1753 16.9059 19.7358 16.4668C19.2964 16.0274 18.5845 16.0274 18.145 16.4668L14.8283 19.7836L14.8283 1.49942C14.8283 0.877964 14.3247 0.37442 13.7033 0.37442C13.0818 0.37442 12.5783 0.877964 12.5783 1.49942L12.5783 22.4994C12.5782 22.9546 12.8522 23.3648 13.2726 23.5387ZM4.26343 7.53202C4.70288 7.97148 5.4148 7.97148 5.85425 7.53202L9.17102 4.21525L9.17102 22.4994C9.17102 23.1209 9.67456 23.6244 10.296 23.6244C10.9175 23.6244 11.421 23.1209 11.421 22.4994L11.421 1.49943C11.421 1.04423 11.1471 0.634069 10.7267 0.460123C10.5875 0.40226 10.441 0.374428 10.2964 0.374428C10.0034 0.374428 9.71558 0.488682 9.5006 0.704014L4.26342 5.9412C3.82397 6.38029 3.82397 7.09293 4.26343 7.53202Z" fill="#F2F2F2"/>
</svg>
