<svg width="35" height="35" viewBox="0 0 35 35" fill="none" xmlns="http://www.w3.org/2000/svg">
<g clip-path="url(#clip0_4369_1986)">
<path d="M17.5 0C27.1646 0 35 7.83545 35 17.5C35 27.1646 27.1642 35 17.5 35C7.8358 35 0 27.1667 0 17.5C0 7.83335 7.8344 0 17.5 0Z" fill="#53AE94"/>
<path d="M19.66 15.1685V12.5652H25.6131V8.59863H9.40254V12.5652H15.3564V15.1664C10.5176 15.3886 6.87939 16.3469 6.87939 17.4949C6.87939 18.6429 10.5194 19.6012 15.3564 19.8249V28.1636H19.6614V19.8242C24.4914 19.6012 28.1223 18.6436 28.1223 17.4967C28.1223 16.3497 24.4914 15.3921 19.6614 15.1692M19.6614 19.1179V19.1158C19.5399 19.1235 18.9159 19.1609 17.5264 19.1609C16.4155 19.1609 15.6339 19.1294 15.3585 19.1151V19.1186C11.0836 18.9292 7.89264 18.1848 7.89264 17.294C7.89264 16.4033 11.0839 15.6599 15.3585 15.4702V18.3769C15.6385 18.3962 16.4393 18.4434 17.5446 18.4434C18.8721 18.4434 19.5396 18.3881 19.6621 18.3769V15.4702C23.9286 15.6602 27.1122 16.4054 27.1122 17.293C27.1122 18.1806 23.9272 18.9261 19.6621 19.1161" fill="white"/>
</g>
<defs>
<clipPath id="clip0_4369_1986">
<rect width="35" height="35" fill="white"/>
</clipPath>
</defs>
</svg>
