<?xml version="1.0" encoding="UTF-8"?>
<svg id="Layer_1" data-name="Layer 1" xmlns="http://www.w3.org/2000/svg" version="1.1" viewBox="0 0 1206.8 251.68">
  <defs>
    <style>
      .cls-1 {
        fill: #161616;
        stroke-width: 0px;
      }

      .cls-2 {
        fill: none;
        stroke: #7fc047;
        stroke-miterlimit: 10;
        stroke-width: 20.46px;
      }
    </style>
  </defs>
  <g>
    <rect class="cls-2" x="41.49" y="80.06" width="135" height="133.45" rx=".59" ry=".59" transform="translate(-71.87 120.06) rotate(-45)"/>
    <rect class="cls-2" x="152.21" y="80.06" width="135" height="133.45" rx=".59" ry=".59" transform="translate(-39.44 198.35) rotate(-45)"/>
  </g>
  <g>
    <path class="cls-1" d="M556.04,95.84c-5.81-12.83-14.59-22.52-26.34-29.06-11.75-6.54-26.46-9.81-44.14-9.81-13.8,0-25.74,2.06-35.78,6.18-10.05,4.12-18.34,9.69-24.88,16.71-6.54,7.03-11.87,14.53-15.98,22.52l37.05,13.08c4.36-7.5,9.81-13.08,16.35-16.71,6.54-3.63,14.04-5.45,22.52-5.45,9.2,0,16.65,2.18,22.34,6.54,5.69,4.36,9.86,10.66,12.53,18.89,1.41,4.37,2.43,9.36,3.09,14.89h-45.23c-22.77,0-40.51,4.97-53.22,14.89-12.71,9.93-19.07,24.34-19.07,43.23,0,17.68,5.99,31.37,17.98,41.05,11.99,9.69,28.88,14.53,50.68,14.53s38.33-7.08,48.86-21.25c.6-.81,1.12-1.7,1.69-2.54l1.03,19.43h38.14l1.09-99.54c0-18.89-2.91-34.75-8.72-47.59ZM518.08,190.11c-3.76,6.9-8.96,12.47-15.62,16.71-6.66,4.24-14.47,6.36-23.43,6.36-10.17,0-18.11-2-23.79-6-5.69-3.99-8.54-9.5-8.54-16.53,0-8.23,3.27-14.59,9.81-19.07,6.54-4.48,17.92-6.72,34.15-6.72h33.06v2.91c0,7.99-1.88,15.44-5.63,22.34Z"/>
    <path class="cls-1" d="M668.28,247.32c-12.11,0-23.25-1.82-33.42-5.45-10.17-3.63-18.89-8.77-26.16-15.44-7.27-6.66-12.84-14.47-16.71-23.43l35.24-15.62c3.63,6.78,9.02,12.47,16.17,17.07,7.14,4.6,15.08,6.9,23.79,6.9,9.44,0,17.01-1.64,22.7-4.9,5.69-3.27,8.54-7.81,8.54-13.62s-2.18-9.87-6.54-12.9c-4.36-3.02-10.53-5.51-18.53-7.45l-17.07-4.72c-17.2-4.36-30.64-11.32-40.32-20.89-9.69-9.56-14.53-20.53-14.53-32.88,0-18.16,5.87-32.21,17.62-42.14,11.74-9.93,28.64-14.89,50.68-14.89,11.14,0,21.37,1.63,30.7,4.9,9.32,3.27,17.37,7.87,24.16,13.8,6.78,5.94,11.5,12.9,14.17,20.89l-33.79,15.26c-2.42-6.05-7.03-10.72-13.8-13.99-6.78-3.27-14.29-4.9-22.52-4.9s-14.66,1.76-19.25,5.27c-4.6,3.51-6.9,8.42-6.9,14.71,0,3.63,2.05,6.96,6.18,9.99,4.12,3.03,10.05,5.51,17.8,7.45l21.43,5.09c11.86,2.91,21.55,7.45,29.06,13.62,7.5,6.18,13.08,13.08,16.71,20.71,3.63,7.63,5.45,15.32,5.45,23.07,0,10.9-3.09,20.47-9.26,28.7-6.18,8.24-14.59,14.59-25.25,19.07-10.66,4.48-22.77,6.72-36.33,6.72Z"/>
    <path class="cls-1" d="M873.89,203c-3.63,2.67-6.9,4.48-9.81,5.45-2.91.97-5.57,1.45-7.99,1.45-7.75,0-13.62-2.18-17.62-6.54-4-4.36-5.99-10.77-5.99-19.25v-87.91h49.04v-34.87h-49.04V4.66h-40.32v56.67h-30.15v34.87h30.15v95.54c0,17.93,5.02,31.67,15.08,41.23,10.05,9.57,24.64,14.35,43.78,14.35,6.29,0,12.59-1.15,18.89-3.45,6.3-2.3,12.59-5.63,18.89-9.99l-14.89-30.88Z"/>
    <path class="cls-1" d="M985.23,69.87c-10.68,5.5-19.58,13.57-26.7,24.17v-32.71h-40.68v181.63h40.68v-97.36c0-11.14,3.03-20.1,9.08-26.88,6.05-6.78,13.99-11.68,23.8-14.71,9.81-3.03,20.28-4.54,31.42-4.54v-38.87c-13.08,0-25.61,3.09-37.6,9.26Z"/>
    <path class="cls-1" d="M1190.29,95.84c-5.81-12.83-14.59-22.52-26.34-29.06-11.75-6.54-26.46-9.81-44.14-9.81-13.8,0-25.73,2.06-35.78,6.18-10.05,4.12-18.34,9.69-24.89,16.71-6.54,7.03-11.87,14.53-15.98,22.52l37.05,13.08c4.36-7.5,9.81-13.08,16.35-16.71,6.54-3.63,14.04-5.45,22.52-5.45,9.2,0,16.65,2.18,22.34,6.54,5.69,4.36,9.87,10.66,12.53,18.89,1.41,4.37,2.42,9.36,3.09,14.89h-45.23c-22.76,0-40.5,4.97-53.22,14.89-12.71,9.93-19.07,24.34-19.07,43.23,0,17.68,5.99,31.37,17.98,41.05,11.99,9.69,28.88,14.53,50.67,14.53s38.33-7.08,48.86-21.25c.6-.81,1.12-1.7,1.69-2.54l1.03,19.43h38.14l1.09-99.54c0-18.89-2.91-34.75-8.72-47.59ZM1152.33,190.11c-3.76,6.9-8.96,12.47-15.62,16.71-6.67,4.24-14.47,6.36-23.43,6.36-10.17,0-18.11-2-23.79-6-5.69-3.99-8.54-9.5-8.54-16.53,0-8.23,3.27-14.59,9.81-19.07,6.54-4.48,17.92-6.72,34.15-6.72h33.06v2.91c0,7.99-1.88,15.44-5.63,22.34Z"/>
  </g>
</svg>